<svg xmlns="http://www.w3.org/2000/svg" viewBox="0 0 32 32" fill="none">
  <rect width="32" height="32" rx="8" fill="url(#recall-gradient)"/>
  <path d="M16 8c-3.2 0-5.8 2.4-6.2 5.5-.1.8.5 1.5 1.3 1.5h1.5c.6 0 1.1-.4 1.2-1 .2-1.2 1.2-2.1 2.4-2.1s2.2.9 2.4 2.1c.1.6.6 1 1.2 1h1.5c.8 0 1.4-.7 1.3-1.5C21.8 10.4 19.2 8 16 8Z" fill="white"/>
  <path d="M11 16.5c0-1.1.9-2 2-2h6c1.1 0 2 .9 2 2v1.5c0 2.5-2 4.5-4.5 4.5h-1c-2.5 0-4.5-2-4.5-4.5V16.5Z" fill="white" fill-opacity="0.92"/>
  <defs>
    <linearGradient id="recall-gradient" x1="4" y1="4" x2="28" y2="28" gradientUnits="userSpaceOnUse">
      <stop stop-color="#4F8CFF"/>
      <stop offset="1" stop-color="#8B5CF6"/>
    </linearGradient>
  </defs>
</svg>
